<svg width="41" height="41" viewBox="0 0 41 41" fill="none" xmlns="http://www.w3.org/2000/svg">
<path fill-rule="evenodd" clip-rule="evenodd" d="M8.65429 4.39181C7.22363 5.39217 5.92993 6.57492 4.80688 7.90634C9.39618 7.48027 15.2267 8.17599 21.9959 11.5606C29.2245 15.1748 35.0453 15.297 39.0963 14.5156C38.7287 13.4027 38.2659 12.3331 37.7178 11.3163C33.0805 11.8054 27.1355 11.158 20.2071 7.69392C15.8075 5.49412 11.9293 4.58795 8.65429 4.39181ZM35.0089 7.46059C31.3468 3.36894 26.0249 0.793945 20.1015 0.793945C18.362 0.793945 16.6742 1.01605 15.0652 1.43343C17.2444 2.02803 19.5594 2.89793 21.9959 4.11621C27.0685 6.65247 31.4479 7.4691 35.0089 7.46059ZM39.9624 18.422C35.0684 19.3884 28.3103 19.1899 20.2071 15.1383C12.6315 11.3505 6.60199 11.3982 2.53546 12.3019C2.32556 12.3485 2.1206 12.3975 1.92059 12.4485C1.38818 13.6064 0.963196 14.824 0.658264 16.0884C0.983948 16.0014 1.32049 15.9187 1.66772 15.8415C6.60113 14.7452 13.5716 14.7928 21.9959 19.005C29.5716 22.7928 35.6011 22.7451 39.6677 21.8414C39.807 21.8105 39.9443 21.7785 40.0793 21.7455C40.0941 21.4302 40.1015 21.1129 40.1015 20.7939C40.1015 19.9914 40.0543 19.1999 39.9624 18.422ZM39.4263 25.9662C34.5798 26.8135 28.0185 26.4883 20.2071 22.5827C12.6315 18.7949 6.60199 18.8426 2.53546 19.7463C1.63281 19.9468 0.820801 20.1911 0.104493 20.449C0.10254 20.5637 0.101562 20.6787 0.101562 20.7939C0.101562 31.8396 9.05585 40.7939 20.1015 40.7939C29.3586 40.7939 37.1468 34.5048 39.4263 25.9662Z" fill="#379CFF"/>
</svg>
